<?xml version="1.0" encoding="UTF-8" standalone="no"?>
<!DOCTYPE svg PUBLIC "-//W3C//DTD SVG 1.1//EN"
 "http://www.w3.org/Graphics/SVG/1.1/DTD/svg11.dtd">
<!-- Generated by graphviz version 2.43.0 (0)
 -->
<!-- Title: SubloadingMetal Pages: 1 -->
<!--zoomable 1119 -->

<svg id="main" version="1.1" xmlns="http://www.w3.org/2000/svg" xmlns:xlink="http://www.w3.org/1999/xlink" xml:space="preserve" onload="init(evt)">
<style type="text/css"><![CDATA[
.node, .edge {opacity: 0.7;}
.node.selected, .edge.selected {opacity: 1;}
.edge:hover path { stroke: red; }
.edge:hover polygon { stroke: red; fill: red; }
]]></style>

<defs>
  <circle id="rim" cx="0" cy="0" r="7"/>
  <circle id="rim2" cx="0" cy="0" r="3.5"/>
  <g id="zoomPlus">
    <use xlink:href="#rim" fill="#404040"><set attributeName="fill" to="#808080" begin="zoomplus.mouseover" end="zoomplus.mouseout"/></use>
    <path d="M-4,0h8M0,-4v8" fill="none" stroke="white" stroke-width="1.5" pointer-events="none"/>
  </g>
  <g id="zoomMin">
    <use xlink:href="#rim" fill="#404040"><set attributeName="fill" to="#808080" begin="zoomminus.mouseover" end="zoomminus.mouseout"/></use>
    <path d="M-4,0h8" fill="none" stroke="white" stroke-width="1.5" pointer-events="none"/>
  </g>
  <g id="arrowUp" transform="translate(30 24)">
    <use xlink:href="#rim"/>
    <path pointer-events="none" fill="none" stroke="white" stroke-width="1.5" d="M0,-3.0v7 M-2.5,-0.5L0,-3.0L2.5,-0.5"/>
  </g>
  <g id="arrowRight" transform="rotate(90) translate(36 -43)">
    <use xlink:href="#rim"/>
    <path pointer-events="none" fill="none" stroke="white" stroke-width="1.5" d="M0,-3.0v7 M-2.5,-0.5L0,-3.0L2.5,-0.5"/>
  </g>
  <g id="arrowDown" transform="rotate(180) translate(-30 -48)">
    <use xlink:href="#rim"/>
    <path pointer-events="none" fill="none" stroke="white" stroke-width="1.5" d="M0,-3.0v7 M-2.5,-0.5L0,-3.0L2.5,-0.5"/>
  </g>
  <g id="arrowLeft" transform="rotate(270) translate(-36 17)">
    <use xlink:href="#rim"/>
    <path pointer-events="none" fill="none" stroke="white" stroke-width="1.5" d="M0,-3.0v7 M-2.5,-0.5L0,-3.0L2.5,-0.5"/>
  </g>
  <g id="resetDef">
    <use xlink:href="#rim2" fill="#404040"><set attributeName="fill" to="#808080" begin="reset.mouseover" end="reset.mouseout"/></use>
  </g>
</defs>
<script type="application/ecmascript">
var viewWidth = 1312;
var viewHeight = 1119;
var sectionId = 'dynsection-1';
</script>
<script type="application/ecmascript" xlink:href="../../svg.min.js"/>
<svg id="graph" class="graph">
<g id="viewport">
<title>SubloadingMetal</title>
<!-- Node1 -->
<g id="Node000001" class="node">
<title>Node1</title>
<g id="a_Node000001"><a xlink:title="A SubloadingMetal material class.">
<polygon fill="#999999" stroke="transparent" points="463,-164 302,-164 302,0 463,0 463,-164"/>
<text text-anchor="start" x="332" y="-151.2" font-family="Consolas" font-size="11.00">SubloadingMetal</text>
<text text-anchor="start" x="379.5" y="-135.2" font-family="Consolas" font-size="11.00"> </text>
<text text-anchor="start" x="306.5" y="-119.2" font-family="Consolas" font-size="11.00">+</text>
<text text-anchor="start" x="317.5" y="-119.2" font-family="Consolas" font-size="11.00">SubloadingMetal()</text>
<text text-anchor="start" x="306.5" y="-103.2" font-family="Consolas" font-size="11.00">+</text>
<text text-anchor="start" x="317.5" y="-103.2" font-family="Consolas" font-size="11.00">initialize()</text>
<text text-anchor="start" x="306.5" y="-87.2" font-family="Consolas" font-size="11.00">+</text>
<text text-anchor="start" x="317.5" y="-87.2" font-family="Consolas" font-size="11.00">get_copy()</text>
<text text-anchor="start" x="306.5" y="-71.2" font-family="Consolas" font-size="11.00">+</text>
<text text-anchor="start" x="317.5" y="-71.2" font-family="Consolas" font-size="11.00">update_trial_status()</text>
<text text-anchor="start" x="306.5" y="-55.2" font-family="Consolas" font-size="11.00">+</text>
<text text-anchor="start" x="317.5" y="-55.2" font-family="Consolas" font-size="11.00">clear_status()</text>
<text text-anchor="start" x="306.5" y="-39.2" font-family="Consolas" font-size="11.00">+</text>
<text text-anchor="start" x="317.5" y="-39.2" font-family="Consolas" font-size="11.00">commit_status()</text>
<text text-anchor="start" x="306.5" y="-23.2" font-family="Consolas" font-size="11.00">+</text>
<text text-anchor="start" x="317.5" y="-23.2" font-family="Consolas" font-size="11.00">reset_status()</text>
<text text-anchor="start" x="306.5" y="-7.2" font-family="Consolas" font-size="11.00">+</text>
<text text-anchor="start" x="317.5" y="-7.2" font-family="Consolas" font-size="11.00">print()</text>
<polygon fill="#666666" stroke="#666666" points="302.5,-146 302.5,-146 463.5,-146 463.5,-146 302.5,-146"/>
<polygon fill="#666666" stroke="#666666" points="302.5,-130 302.5,-130 463.5,-130 463.5,-130 302.5,-130"/>
<polygon fill="none" stroke="#666666" points="302,0 302,-164 463,-164 463,0 302,0"/>
</a>
</g>
</g>
<!-- Node2 -->
<g id="Node000002" class="node">
<title>Node2</title>
<g id="a_Node000002"><a xlink:href="../../d6/dbd/struct_data_subloading_metal.html" target="_top" xlink:title=" ">
<polygon fill="white" stroke="transparent" points="183,-719 44,-719 44,-667 183,-667 183,-719"/>
<text text-anchor="start" x="49.5" y="-706.2" font-family="Consolas" font-size="11.00">DataSubloadingMetal</text>
<text text-anchor="start" x="76.5" y="-690.2" font-family="Consolas" font-size="11.00">+</text>
<text text-anchor="start" x="115.5" y="-690.2" font-family="Consolas" font-size="11.00">u</text>
<text text-anchor="start" x="110.5" y="-674.2" font-family="Consolas" font-size="11.00"> </text>
<polygon fill="#666666" stroke="#666666" points="44.5,-701 44.5,-701 183.5,-701 183.5,-701 44.5,-701"/>
<polygon fill="#666666" stroke="#666666" points="44.5,-685 44.5,-685 113.5,-685 113.5,-685 44.5,-685"/>
<polygon fill="#666666" stroke="#666666" points="113.5,-685 113.5,-685 183.5,-685 183.5,-685 113.5,-685"/>
<polygon fill="none" stroke="#666666" points="44,-667 44,-719 183,-719 183,-667 44,-667"/>
</a>
</g>
</g>
<!-- Node2&#45;&gt;Node1 -->
<g id="edge1_Node000001_Node000002" class="edge">
<title>Node2&#45;&gt;Node1</title>
<g id="a_edge1_Node000001_Node000002"><a xlink:title=" ">
<path fill="none" stroke="darkgreen" d="M128.68,-657.64C170.31,-563.39 287.14,-298.89 346.67,-164.13"/>
<polygon fill="none" stroke="darkgreen" points="125.39,-656.43 124.55,-666.99 131.79,-659.26 125.39,-656.43"/>
</a>
</g>
</g>
<!-- Node3 -->
<g id="Node000003" class="node">
<title>Node3</title>
<g id="a_Node000003"><a xlink:title=" ">
<polygon fill="white" stroke="transparent" points="236,-1081 185,-1081 185,-1029 236,-1029 236,-1081"/>
<text text-anchor="start" x="190.5" y="-1068.2" font-family="Consolas" font-size="11.00">double</text>
<text text-anchor="start" x="207.5" y="-1052.2" font-family="Consolas" font-size="11.00"> </text>
<text text-anchor="start" x="207.5" y="-1036.2" font-family="Consolas" font-size="11.00"> </text>
<polygon fill="#666666" stroke="#666666" points="185.5,-1063 185.5,-1063 236.5,-1063 236.5,-1063 185.5,-1063"/>
<polygon fill="#666666" stroke="#666666" points="185.5,-1047 185.5,-1047 236.5,-1047 236.5,-1047 185.5,-1047"/>
<polygon fill="none" stroke="#666666" points="185,-1029 185,-1081 236,-1081 236,-1029 185,-1029"/>
</a>
</g>
</g>
<!-- Node3&#45;&gt;Node2 -->
<g id="edge2_Node000002_Node000003" class="edge">
<title>Node3&#45;&gt;Node2</title>
<g id="a_edge2_Node000002_Node000003"><a xlink:title=" ">
<path fill="none" stroke="#63b8ff" d="M184.88,-1029.37C173.83,-1019.36 160.48,-1008.05 147.5,-999 133.79,-989.45 123.05,-995.35 114.5,-981 90.06,-939.99 101.65,-799.53 109.02,-731.51"/>
<polygon fill="none" stroke="#63b8ff" points="109.05,-731.24 105.75,-724.83 110.39,-719.31 113.7,-725.72 109.05,-731.24"/>
</a>
</g>
<text text-anchor="middle" x="165.5" y="-972.2" font-family="Consolas" font-size="11.00" fill="grey"> +elastic</text>
<text text-anchor="middle" x="165.5" y="-960.2" font-family="Consolas" font-size="11.00" fill="grey">+initial_iso</text>
<text text-anchor="middle" x="165.5" y="-948.2" font-family="Consolas" font-size="11.00" fill="grey">+initial_kin</text>
<text text-anchor="middle" x="165.5" y="-936.2" font-family="Consolas" font-size="11.00" fill="grey">+k_iso</text>
<text text-anchor="middle" x="165.5" y="-924.2" font-family="Consolas" font-size="11.00" fill="grey">+k_kin</text>
<text text-anchor="middle" x="165.5" y="-912.2" font-family="Consolas" font-size="11.00" fill="grey">+m_iso</text>
<text text-anchor="middle" x="165.5" y="-900.2" font-family="Consolas" font-size="11.00" fill="grey">+m_kin</text>
<text text-anchor="middle" x="165.5" y="-888.2" font-family="Consolas" font-size="11.00" fill="grey">+poissons_ratio</text>
<text text-anchor="middle" x="165.5" y="-876.2" font-family="Consolas" font-size="11.00" fill="grey">+saturation_iso</text>
<text text-anchor="middle" x="165.5" y="-864.2" font-family="Consolas" font-size="11.00" fill="grey">+saturation_kin</text>
<text text-anchor="middle" x="165.5" y="-852.2" font-family="Consolas" font-size="11.00" fill="grey">...</text>
</g>
<!-- Node7 -->
<g id="Node000007" class="node">
<title>Node7</title>
<g id="a_Node000007"><a xlink:href="../../de/de9/struct_data_material.html" target="_top" xlink:title=" ">
<polygon fill="white" stroke="transparent" points="598.5,-751 464.5,-751 464.5,-635 598.5,-635 598.5,-751"/>
<text text-anchor="start" x="490.5" y="-738.2" font-family="Consolas" font-size="11.00">DataMaterial</text>
<text text-anchor="start" x="468.5" y="-722.2" font-family="Consolas" font-size="11.00">+</text>
<text text-anchor="start" x="479.5" y="-722.2" font-family="Consolas" font-size="11.00">trial_strain</text>
<text text-anchor="start" x="468.5" y="-706.2" font-family="Consolas" font-size="11.00">+</text>
<text text-anchor="start" x="479.5" y="-706.2" font-family="Consolas" font-size="11.00">trial_strain_rate</text>
<text text-anchor="start" x="468.5" y="-690.2" font-family="Consolas" font-size="11.00">+</text>
<text text-anchor="start" x="479.5" y="-690.2" font-family="Consolas" font-size="11.00">trial_strain_acc</text>
<text text-anchor="start" x="468.5" y="-674.2" font-family="Consolas" font-size="11.00">+</text>
<text text-anchor="start" x="479.5" y="-674.2" font-family="Consolas" font-size="11.00">trial_stress</text>
<text text-anchor="start" x="468.5" y="-658.2" font-family="Consolas" font-size="11.00">+</text>
<text text-anchor="start" x="479.5" y="-658.2" font-family="Consolas" font-size="11.00">trial_history</text>
<text text-anchor="start" x="528" y="-642.2" font-family="Consolas" font-size="11.00"> </text>
<polygon fill="#666666" stroke="#666666" points="464.5,-733 464.5,-733 598.5,-733 598.5,-733 464.5,-733"/>
<polygon fill="#666666" stroke="#666666" points="464.5,-653 464.5,-653 477.5,-653 477.5,-653 464.5,-653"/>
<polygon fill="#666666" stroke="#666666" points="477.5,-653 477.5,-653 598.5,-653 598.5,-653 477.5,-653"/>
<polygon fill="none" stroke="#666666" points="464.5,-635 464.5,-751 598.5,-751 598.5,-635 464.5,-635"/>
</a>
</g>
</g>
<!-- Node3&#45;&gt;Node7 -->
<g id="edge7_Node000007_Node000003" class="edge">
<title>Node3&#45;&gt;Node7</title>
<g id="a_edge7_Node000007_Node000003"><a xlink:title=" ">
<path fill="none" stroke="#63b8ff" d="M212.62,-1028.76C217.1,-980.5 228.85,-877.43 249.5,-849 299.05,-780.77 388.2,-739.12 453.03,-716.42"/>
<polygon fill="none" stroke="#63b8ff" points="453.07,-716.4 457.46,-710.68 464.43,-712.53 460.04,-718.25 453.07,-716.4"/>
</a>
</g>
<text text-anchor="middle" x="327.5" y="-924.2" font-family="Consolas" font-size="11.00" fill="grey"> +characteristic_length</text>
<text text-anchor="middle" x="327.5" y="-912.2" font-family="Consolas" font-size="11.00" fill="grey">+density</text>
<text text-anchor="middle" x="327.5" y="-900.2" font-family="Consolas" font-size="11.00" fill="grey">+tolerance</text>
</g>
<!-- Node4 -->
<g id="Node000004" class="node">
<title>Node4</title>
<g id="a_Node000004"><a xlink:href="../../d9/d81/class_data_subloading_metal_1_1_saturation.html" target="_top" xlink:title=" ">
<polygon fill="white" stroke="transparent" points="139,-1111 0,-1111 0,-999 139,-999 139,-1111"/>
<text text-anchor="start" x="5.5" y="-1098.2" font-family="Consolas" font-size="11.00">DataSubloadingMetal</text>
<text text-anchor="start" x="29" y="-1086.2" font-family="Consolas" font-size="11.00">::Saturation</text>
<text text-anchor="start" x="66.5" y="-1070.2" font-family="Consolas" font-size="11.00"> </text>
<text text-anchor="start" x="14" y="-1054.2" font-family="Consolas" font-size="11.00">+</text>
<text text-anchor="start" x="34.5" y="-1054.2" font-family="Consolas" font-size="11.00">Saturation()</text>
<text text-anchor="start" x="14" y="-1038.2" font-family="Consolas" font-size="11.00">+</text>
<text text-anchor="start" x="34.5" y="-1038.2" font-family="Consolas" font-size="11.00">r()</text>
<text text-anchor="start" x="14" y="-1022.2" font-family="Consolas" font-size="11.00">+</text>
<text text-anchor="start" x="34.5" y="-1022.2" font-family="Consolas" font-size="11.00">b()</text>
<text text-anchor="start" x="14" y="-1006.2" font-family="Consolas" font-size="11.00">+</text>
<text text-anchor="start" x="34.5" y="-1006.2" font-family="Consolas" font-size="11.00">rb()</text>
<polygon fill="#666666" stroke="#666666" points="0.5,-1081 0.5,-1081 139.5,-1081 139.5,-1081 0.5,-1081"/>
<polygon fill="#666666" stroke="#666666" points="0.5,-1065 0.5,-1065 139.5,-1065 139.5,-1065 0.5,-1065"/>
<polygon fill="none" stroke="#666666" points="0,-999 0,-1111 139,-1111 139,-999 0,-999"/>
</a>
</g>
</g>
<!-- Node4&#45;&gt;Node2 -->
<g id="edge3_Node000002_Node000004" class="edge">
<title>Node4&#45;&gt;Node2</title>
<g id="a_edge3_Node000002_Node000004"><a xlink:title=" ">
<path fill="none" stroke="#63b8ff" d="M65.83,-998.9C64.02,-957.47 63.51,-899.41 70.5,-849 76.24,-807.61 89.96,-761.65 100.37,-730.6"/>
<polygon fill="none" stroke="#63b8ff" points="100.43,-730.43 98.59,-723.45 104.32,-719.07 106.16,-726.04 100.43,-730.43"/>
</a>
</g>
<text text-anchor="middle" x="81" y="-918.2" font-family="Consolas" font-size="11.00" fill="grey"> +b</text>
<text text-anchor="middle" x="81" y="-906.2" font-family="Consolas" font-size="11.00" fill="grey">+c</text>
</g>
<!-- Node5 -->
<g id="Node000005" class="node">
<title>Node5</title>
<g id="a_Node000005"><a xlink:href="../../d7/d42/class_material3_d.html" target="_top" xlink:title="The Material3D class.">
<polygon fill="white" stroke="transparent" points="541,-269 440,-269 440,-201 541,-201 541,-269"/>
<text text-anchor="start" x="457" y="-256.2" font-family="Consolas" font-size="11.00">Material3D</text>
<text text-anchor="start" x="487.5" y="-240.2" font-family="Consolas" font-size="11.00"> </text>
<text text-anchor="start" x="444.5" y="-224.2" font-family="Consolas" font-size="11.00">+</text>
<text text-anchor="start" x="455.5" y="-224.2" font-family="Consolas" font-size="11.00">Material3D()</text>
<text text-anchor="start" x="444.5" y="-208.2" font-family="Consolas" font-size="11.00">+</text>
<text text-anchor="start" x="455.5" y="-208.2" font-family="Consolas" font-size="11.00">record()</text>
<polygon fill="#666666" stroke="#666666" points="440.5,-251 440.5,-251 541.5,-251 541.5,-251 440.5,-251"/>
<polygon fill="#666666" stroke="#666666" points="440.5,-235 440.5,-235 541.5,-235 541.5,-235 440.5,-235"/>
<polygon fill="none" stroke="#666666" points="440,-201 440,-269 541,-269 541,-201 440,-201"/>
</a>
</g>
</g>
<!-- Node5&#45;&gt;Node1 -->
<g id="edge4_Node000001_Node000005" class="edge">
<title>Node5&#45;&gt;Node1</title>
<g id="a_edge4_Node000001_Node000005"><a xlink:title=" ">
<path fill="none" stroke="#63b8ff" d="M460.86,-192.56C454.47,-183.62 447.5,-173.87 440.44,-164"/>
<polygon fill="none" stroke="#63b8ff" points="458.13,-194.76 466.8,-200.86 463.83,-190.69 458.13,-194.76"/>
</a>
</g>
</g>
<!-- Node6 -->
<g id="Node000006" class="node">
<title>Node6</title>
<g id="a_Node000006"><a xlink:href="../../dc/dee/class_material.html" target="_top" xlink:title="A Material abstract base class.">
<polygon fill="white" stroke="transparent" points="701.5,-518 553.5,-518 553.5,-306 701.5,-306 701.5,-518"/>
<text text-anchor="start" x="600" y="-505.2" font-family="Consolas" font-size="11.00">Material</text>
<text text-anchor="start" x="624" y="-489.2" font-family="Consolas" font-size="11.00"> </text>
<text text-anchor="start" x="557.5" y="-473.2" font-family="Consolas" font-size="11.00">+</text>
<text text-anchor="start" x="568.5" y="-473.2" font-family="Consolas" font-size="11.00">Material()</text>
<text text-anchor="start" x="557.5" y="-457.2" font-family="Consolas" font-size="11.00">+</text>
<text text-anchor="start" x="568.5" y="-457.2" font-family="Consolas" font-size="11.00">Material()</text>
<text text-anchor="start" x="557.5" y="-441.2" font-family="Consolas" font-size="11.00">+</text>
<text text-anchor="start" x="568.5" y="-441.2" font-family="Consolas" font-size="11.00">Material()</text>
<text text-anchor="start" x="557.5" y="-425.2" font-family="Consolas" font-size="11.00">+</text>
<text text-anchor="start" x="568.5" y="-425.2" font-family="Consolas" font-size="11.00">operator=()</text>
<text text-anchor="start" x="557.5" y="-409.2" font-family="Consolas" font-size="11.00">+</text>
<text text-anchor="start" x="568.5" y="-409.2" font-family="Consolas" font-size="11.00">operator=()</text>
<text text-anchor="start" x="557.5" y="-393.2" font-family="Consolas" font-size="11.00">+</text>
<text text-anchor="start" x="568.5" y="-393.2" font-family="Consolas" font-size="11.00">~Material()</text>
<text text-anchor="start" x="557.5" y="-377.2" font-family="Consolas" font-size="11.00">+</text>
<text text-anchor="start" x="568.5" y="-377.2" font-family="Consolas" font-size="11.00">get_density()</text>
<text text-anchor="start" x="557.5" y="-361.2" font-family="Consolas" font-size="11.00">+</text>
<text text-anchor="start" x="568.5" y="-361.2" font-family="Consolas" font-size="11.00">get_material_type()</text>
<text text-anchor="start" x="557.5" y="-345.2" font-family="Consolas" font-size="11.00">+</text>
<text text-anchor="start" x="568.5" y="-345.2" font-family="Consolas" font-size="11.00">get_plane_type()</text>
<text text-anchor="start" x="557.5" y="-329.2" font-family="Consolas" font-size="11.00">+</text>
<text text-anchor="start" x="568.5" y="-329.2" font-family="Consolas" font-size="11.00">initialize_base()</text>
<text text-anchor="start" x="568.5" y="-313.2" font-family="Consolas" font-size="11.00">and 72 more...</text>
<polygon fill="#666666" stroke="#666666" points="553.5,-500 553.5,-500 701.5,-500 701.5,-500 553.5,-500"/>
<polygon fill="#666666" stroke="#666666" points="553.5,-484 553.5,-484 701.5,-484 701.5,-484 553.5,-484"/>
<polygon fill="none" stroke="#666666" points="553.5,-306 553.5,-518 701.5,-518 701.5,-306 553.5,-306"/>
</a>
</g>
</g>
<!-- Node6&#45;&gt;Node5 -->
<g id="edge5_Node000005_Node000006" class="edge">
<title>Node6&#45;&gt;Node5</title>
<g id="a_edge5_Node000005_Node000006"><a xlink:title=" ">
<path fill="none" stroke="#63b8ff" d="M547.21,-308.44C536.15,-294.32 525.52,-280.73 516.51,-269.22"/>
<polygon fill="none" stroke="#63b8ff" points="544.47,-310.61 553.39,-316.33 549.98,-306.3 544.47,-310.61"/>
</a>
</g>
</g>
<!-- Node7&#45;&gt;Node6 -->
<g id="edge6_Node000006_Node000007" class="edge">
<title>Node7&#45;&gt;Node6</title>
<g id="a_edge6_Node000006_Node000007"><a xlink:title=" ">
<path fill="none" stroke="darkgreen" d="M554.5,-625.16C565.53,-593.09 579.01,-553.92 591.37,-518"/>
<polygon fill="none" stroke="darkgreen" points="551.1,-624.27 551.16,-634.87 557.72,-626.55 551.1,-624.27"/>
</a>
</g>
</g>
<!-- Node8 -->
<g id="Node000008" class="node">
<title>Node8</title>
<g id="a_Node000008"><a xlink:title=" ">
<polygon fill="white" stroke="transparent" points="475.5,-1081 343.5,-1081 343.5,-1029 475.5,-1029 475.5,-1081"/>
<text text-anchor="start" x="348.5" y="-1068.2" font-family="Consolas" font-size="11.00">const MaterialType</text>
<text text-anchor="start" x="406" y="-1052.2" font-family="Consolas" font-size="11.00"> </text>
<text text-anchor="start" x="406" y="-1036.2" font-family="Consolas" font-size="11.00"> </text>
<polygon fill="#666666" stroke="#666666" points="343.5,-1063 343.5,-1063 475.5,-1063 475.5,-1063 343.5,-1063"/>
<polygon fill="#666666" stroke="#666666" points="343.5,-1047 343.5,-1047 475.5,-1047 475.5,-1047 343.5,-1047"/>
<polygon fill="none" stroke="#666666" points="343.5,-1029 343.5,-1081 475.5,-1081 475.5,-1029 343.5,-1029"/>
</a>
</g>
</g>
<!-- Node8&#45;&gt;Node7 -->
<g id="edge8_Node000007_Node000008" class="edge">
<title>Node8&#45;&gt;Node7</title>
<g id="a_edge8_Node000007_Node000008"><a xlink:title=" ">
<path fill="none" stroke="#63b8ff" d="M408.33,-1028.88C407.32,-989.39 408.62,-910.9 430.5,-849 441.42,-818.12 459.66,-787.25 477.66,-761.28"/>
<polygon fill="none" stroke="#63b8ff" points="477.86,-761 478.07,-753.79 484.8,-751.21 484.59,-758.42 477.86,-761"/>
</a>
</g>
<text text-anchor="middle" x="481.5" y="-912.2" font-family="Consolas" font-size="11.00" fill="grey"> +material_type</text>
</g>
<!-- Node9 -->
<g id="Node000009" class="node">
<title>Node9</title>
<g id="a_Node000009"><a xlink:title=" ">
<polygon fill="white" stroke="transparent" points="605.5,-1081 493.5,-1081 493.5,-1029 605.5,-1029 605.5,-1081"/>
<text text-anchor="start" x="498.5" y="-1068.2" font-family="Consolas" font-size="11.00">const PlaneType</text>
<text text-anchor="start" x="546" y="-1052.2" font-family="Consolas" font-size="11.00"> </text>
<text text-anchor="start" x="546" y="-1036.2" font-family="Consolas" font-size="11.00"> </text>
<polygon fill="#666666" stroke="#666666" points="493.5,-1063 493.5,-1063 605.5,-1063 605.5,-1063 493.5,-1063"/>
<polygon fill="#666666" stroke="#666666" points="493.5,-1047 493.5,-1047 605.5,-1047 605.5,-1047 493.5,-1047"/>
<polygon fill="none" stroke="#666666" points="493.5,-1029 493.5,-1081 605.5,-1081 605.5,-1029 493.5,-1029"/>
</a>
</g>
</g>
<!-- Node9&#45;&gt;Node7 -->
<g id="edge9_Node000007_Node000009" class="edge">
<title>Node9&#45;&gt;Node7</title>
<g id="a_edge9_Node000007_Node000009"><a xlink:title=" ">
<path fill="none" stroke="#63b8ff" d="M547.17,-1028.68C545.94,-1014.64 544.48,-996.86 543.5,-981 538.9,-906.81 535.59,-821.71 533.63,-763.56"/>
<polygon fill="none" stroke="#63b8ff" points="533.61,-763.2 529.42,-757.34 533.21,-751.21 537.41,-757.07 533.61,-763.2"/>
</a>
</g>
<text text-anchor="middle" x="584.5" y="-912.2" font-family="Consolas" font-size="11.00" fill="grey"> +plane_type</text>
</g>
<!-- Node10 -->
<g id="Node000010" class="node">
<title>Node10</title>
<g id="a_Node000010"><a xlink:title=" ">
<polygon fill="white" stroke="transparent" points="1086,-1081 1055,-1081 1055,-1029 1086,-1029 1086,-1081"/>
<text text-anchor="start" x="1060.5" y="-1068.2" font-family="Consolas" font-size="11.00">vec</text>
<text text-anchor="start" x="1067.5" y="-1052.2" font-family="Consolas" font-size="11.00"> </text>
<text text-anchor="start" x="1067.5" y="-1036.2" font-family="Consolas" font-size="11.00"> </text>
<polygon fill="#666666" stroke="#666666" points="1055.5,-1063 1055.5,-1063 1086.5,-1063 1086.5,-1063 1055.5,-1063"/>
<polygon fill="#666666" stroke="#666666" points="1055.5,-1047 1055.5,-1047 1086.5,-1047 1086.5,-1047 1055.5,-1047"/>
<polygon fill="none" stroke="#666666" points="1055,-1029 1055,-1081 1086,-1081 1086,-1029 1055,-1029"/>
</a>
</g>
</g>
<!-- Node10&#45;&gt;Node7 -->
<g id="edge10_Node000007_Node000010" class="edge">
<title>Node10&#45;&gt;Node7</title>
<g id="a_edge10_Node000007_Node000010"><a xlink:title=" ">
<path fill="none" stroke="#63b8ff" d="M1054.82,-1044.91C1035.7,-1032.9 1004.02,-1009.88 988.5,-981 960.44,-928.79 1013.32,-888.91 969.5,-849 939.81,-821.95 642.65,-852.14 608.5,-831 583.23,-815.36 565.52,-788.22 553.52,-762.2"/>
<polygon fill="none" stroke="#63b8ff" points="553.5,-762.16 547.44,-758.25 548.72,-751.16 554.78,-755.06 553.5,-762.16"/>
</a>
</g>
<text text-anchor="middle" x="1056.5" y="-972.2" font-family="Consolas" font-size="11.00" fill="grey"> +current_history</text>
<text text-anchor="middle" x="1056.5" y="-960.2" font-family="Consolas" font-size="11.00" fill="grey">+current_strain</text>
<text text-anchor="middle" x="1056.5" y="-948.2" font-family="Consolas" font-size="11.00" fill="grey">+current_strain_acc</text>
<text text-anchor="middle" x="1056.5" y="-936.2" font-family="Consolas" font-size="11.00" fill="grey">+current_strain_rate</text>
<text text-anchor="middle" x="1056.5" y="-924.2" font-family="Consolas" font-size="11.00" fill="grey">+current_stress</text>
<text text-anchor="middle" x="1056.5" y="-912.2" font-family="Consolas" font-size="11.00" fill="grey">+incre_strain</text>
<text text-anchor="middle" x="1056.5" y="-900.2" font-family="Consolas" font-size="11.00" fill="grey">+incre_strain_acc</text>
<text text-anchor="middle" x="1056.5" y="-888.2" font-family="Consolas" font-size="11.00" fill="grey">+incre_strain_rate</text>
<text text-anchor="middle" x="1056.5" y="-876.2" font-family="Consolas" font-size="11.00" fill="grey">+incre_stress</text>
<text text-anchor="middle" x="1056.5" y="-864.2" font-family="Consolas" font-size="11.00" fill="grey">+initial_history</text>
<text text-anchor="middle" x="1056.5" y="-852.2" font-family="Consolas" font-size="11.00" fill="grey">...</text>
</g>
<!-- Node12 -->
<g id="Node000012" class="node">
<title>Node12</title>
<g id="a_Node000012"><a xlink:href="../../da/de4/struct_data_couple_material.html" target="_top" xlink:title=" ">
<polygon fill="white" stroke="transparent" points="868.5,-719 736.5,-719 736.5,-667 868.5,-667 868.5,-719"/>
<text text-anchor="start" x="741.5" y="-706.2" font-family="Consolas" font-size="11.00">DataCoupleMaterial</text>
<text text-anchor="start" x="799" y="-690.2" font-family="Consolas" font-size="11.00"> </text>
<text text-anchor="start" x="799" y="-674.2" font-family="Consolas" font-size="11.00"> </text>
<polygon fill="#666666" stroke="#666666" points="736.5,-701 736.5,-701 868.5,-701 868.5,-701 736.5,-701"/>
<polygon fill="#666666" stroke="#666666" points="736.5,-685 736.5,-685 868.5,-685 868.5,-685 736.5,-685"/>
<polygon fill="none" stroke="#666666" points="736.5,-667 736.5,-719 868.5,-719 868.5,-667 736.5,-667"/>
</a>
</g>
</g>
<!-- Node10&#45;&gt;Node12 -->
<g id="edge13_Node000012_Node000010" class="edge">
<title>Node10&#45;&gt;Node12</title>
<g id="a_edge13_Node000012_Node000010"><a xlink:title=" ">
<path fill="none" stroke="#63b8ff" d="M1086.06,-1040.46C1100.21,-1027.01 1120.13,-1004.99 1128.5,-981 1147.83,-925.61 1159.84,-898.6 1128.5,-849 1074.4,-763.38 958.7,-724.09 880.72,-706.76"/>
<polygon fill="none" stroke="#63b8ff" points="880.28,-706.66 873.58,-709.33 868.54,-704.16 875.25,-701.5 880.28,-706.66"/>
</a>
</g>
<text text-anchor="middle" x="1225.5" y="-942.2" font-family="Consolas" font-size="11.00" fill="grey"> +current_couple_stress</text>
<text text-anchor="middle" x="1225.5" y="-930.2" font-family="Consolas" font-size="11.00" fill="grey">+current_curvature</text>
<text text-anchor="middle" x="1225.5" y="-918.2" font-family="Consolas" font-size="11.00" fill="grey">+incre_couple_stress</text>
<text text-anchor="middle" x="1225.5" y="-906.2" font-family="Consolas" font-size="11.00" fill="grey">+incre_curvature</text>
<text text-anchor="middle" x="1225.5" y="-894.2" font-family="Consolas" font-size="11.00" fill="grey">+trial_couple_stress</text>
<text text-anchor="middle" x="1225.5" y="-882.2" font-family="Consolas" font-size="11.00" fill="grey">+trial_curvature</text>
</g>
<!-- Node11 -->
<g id="Node000011" class="node">
<title>Node11</title>
<g id="a_Node000011"><a xlink:title=" ">
<polygon fill="white" stroke="transparent" points="735,-1081 704,-1081 704,-1029 735,-1029 735,-1081"/>
<text text-anchor="start" x="709.5" y="-1068.2" font-family="Consolas" font-size="11.00">mat</text>
<text text-anchor="start" x="716.5" y="-1052.2" font-family="Consolas" font-size="11.00"> </text>
<text text-anchor="start" x="716.5" y="-1036.2" font-family="Consolas" font-size="11.00"> </text>
<polygon fill="#666666" stroke="#666666" points="704.5,-1063 704.5,-1063 735.5,-1063 735.5,-1063 704.5,-1063"/>
<polygon fill="#666666" stroke="#666666" points="704.5,-1047 704.5,-1047 735.5,-1047 735.5,-1047 704.5,-1047"/>
<polygon fill="none" stroke="#666666" points="704,-1029 704,-1081 735,-1081 735,-1029 704,-1029"/>
</a>
</g>
</g>
<!-- Node11&#45;&gt;Node7 -->
<g id="edge11_Node000007_Node000011" class="edge">
<title>Node11&#45;&gt;Node7</title>
<g id="a_edge11_Node000007_Node000011"><a xlink:title=" ">
<path fill="none" stroke="#63b8ff" d="M703.92,-1043.7C686.32,-1031.14 658.35,-1008.2 644.5,-981 617.61,-928.18 651.28,-902.37 625.5,-849 620.71,-839.09 615.02,-839.86 608.5,-831 592.72,-809.56 577.79,-784.57 565.35,-761.85"/>
<polygon fill="none" stroke="#63b8ff" points="565.33,-761.8 558.96,-758.42 559.63,-751.24 566,-754.62 565.33,-761.8"/>
</a>
</g>
<text text-anchor="middle" x="705.5" y="-960.2" font-family="Consolas" font-size="11.00" fill="grey"> +current_damping</text>
<text text-anchor="middle" x="705.5" y="-948.2" font-family="Consolas" font-size="11.00" fill="grey">+current_inertial</text>
<text text-anchor="middle" x="705.5" y="-936.2" font-family="Consolas" font-size="11.00" fill="grey">+current_stiffness</text>
<text text-anchor="middle" x="705.5" y="-924.2" font-family="Consolas" font-size="11.00" fill="grey">+initial_damping</text>
<text text-anchor="middle" x="705.5" y="-912.2" font-family="Consolas" font-size="11.00" fill="grey">+initial_inertial</text>
<text text-anchor="middle" x="705.5" y="-900.2" font-family="Consolas" font-size="11.00" fill="grey">+initial_stiffness</text>
<text text-anchor="middle" x="705.5" y="-888.2" font-family="Consolas" font-size="11.00" fill="grey">+trial_damping</text>
<text text-anchor="middle" x="705.5" y="-876.2" font-family="Consolas" font-size="11.00" fill="grey">+trial_inertial</text>
<text text-anchor="middle" x="705.5" y="-864.2" font-family="Consolas" font-size="11.00" fill="grey">+trial_stiffness</text>
</g>
<!-- Node11&#45;&gt;Node12 -->
<g id="edge14_Node000012_Node000011" class="edge">
<title>Node11&#45;&gt;Node12</title>
<g id="a_edge14_Node000012_Node000011"><a xlink:title=" ">
<path fill="none" stroke="#63b8ff" d="M735,-1037.13C746.86,-1023.18 762.49,-1002.27 770.5,-981 787.4,-936.16 796.91,-798.23 800.63,-731.26"/>
<polygon fill="none" stroke="#63b8ff" points="800.64,-731.22 796.97,-725.01 801.28,-719.24 804.95,-725.44 800.64,-731.22"/>
</a>
</g>
<text text-anchor="middle" x="879.5" y="-924.2" font-family="Consolas" font-size="11.00" fill="grey"> +current_couple_stiffness</text>
<text text-anchor="middle" x="879.5" y="-912.2" font-family="Consolas" font-size="11.00" fill="grey">+initial_couple_stiffness</text>
<text text-anchor="middle" x="879.5" y="-900.2" font-family="Consolas" font-size="11.00" fill="grey">+trial_couple_stiffness</text>
</g>
<!-- Node12&#45;&gt;Node6 -->
<g id="edge12_Node000006_Node000012" class="edge">
<title>Node12&#45;&gt;Node6</title>
<g id="a_edge12_Node000006_Node000012"><a xlink:title=" ">
<path fill="none" stroke="darkgreen" d="M785.12,-657.75C770.54,-629.66 748.76,-589.12 727.5,-555 719.37,-541.95 710.51,-528.46 701.53,-515.23"/>
<polygon fill="none" stroke="darkgreen" points="782.08,-659.49 789.78,-666.77 788.3,-656.28 782.08,-659.49"/>
</a>
</g>
</g>
<!-- Node13 -->
<g id="Node000013" class="node">
<title>Node13</title>
<g id="a_Node000013"><a xlink:href="../../d0/d57/class_tag.html" target="_top" xlink:title="A base Tag class.">
<polygon fill="white" stroke="transparent" points="718,-831 617,-831 617,-555 718,-555 718,-831"/>
<text text-anchor="start" x="657.5" y="-818.2" font-family="Consolas" font-size="11.00">Tag</text>
<text text-anchor="start" x="664.5" y="-802.2" font-family="Consolas" font-size="11.00"> </text>
<text text-anchor="start" x="621.5" y="-786.2" font-family="Consolas" font-size="11.00">+</text>
<text text-anchor="start" x="632.5" y="-786.2" font-family="Consolas" font-size="11.00">Tag()</text>
<text text-anchor="start" x="621.5" y="-770.2" font-family="Consolas" font-size="11.00">+</text>
<text text-anchor="start" x="632.5" y="-770.2" font-family="Consolas" font-size="11.00">Tag()</text>
<text text-anchor="start" x="621.5" y="-754.2" font-family="Consolas" font-size="11.00">+</text>
<text text-anchor="start" x="632.5" y="-754.2" font-family="Consolas" font-size="11.00">Tag()</text>
<text text-anchor="start" x="621.5" y="-738.2" font-family="Consolas" font-size="11.00">+</text>
<text text-anchor="start" x="632.5" y="-738.2" font-family="Consolas" font-size="11.00">operator=()</text>
<text text-anchor="start" x="621.5" y="-722.2" font-family="Consolas" font-size="11.00">+</text>
<text text-anchor="start" x="632.5" y="-722.2" font-family="Consolas" font-size="11.00">operator=()</text>
<text text-anchor="start" x="621.5" y="-706.2" font-family="Consolas" font-size="11.00">+</text>
<text text-anchor="start" x="632.5" y="-706.2" font-family="Consolas" font-size="11.00">~Tag()</text>
<text text-anchor="start" x="621.5" y="-690.2" font-family="Consolas" font-size="11.00">+</text>
<text text-anchor="start" x="632.5" y="-690.2" font-family="Consolas" font-size="11.00">set_tag()</text>
<text text-anchor="start" x="621.5" y="-674.2" font-family="Consolas" font-size="11.00">+</text>
<text text-anchor="start" x="632.5" y="-674.2" font-family="Consolas" font-size="11.00">get_tag()</text>
<text text-anchor="start" x="621.5" y="-658.2" font-family="Consolas" font-size="11.00">+</text>
<text text-anchor="start" x="632.5" y="-658.2" font-family="Consolas" font-size="11.00">enable()</text>
<text text-anchor="start" x="621.5" y="-642.2" font-family="Consolas" font-size="11.00">+</text>
<text text-anchor="start" x="632.5" y="-642.2" font-family="Consolas" font-size="11.00">disable()</text>
<text text-anchor="start" x="621.5" y="-626.2" font-family="Consolas" font-size="11.00">+</text>
<text text-anchor="start" x="632.5" y="-626.2" font-family="Consolas" font-size="11.00">guard()</text>
<text text-anchor="start" x="621.5" y="-610.2" font-family="Consolas" font-size="11.00">+</text>
<text text-anchor="start" x="632.5" y="-610.2" font-family="Consolas" font-size="11.00">unguard()</text>
<text text-anchor="start" x="621.5" y="-594.2" font-family="Consolas" font-size="11.00">+</text>
<text text-anchor="start" x="632.5" y="-594.2" font-family="Consolas" font-size="11.00">is_active()</text>
<text text-anchor="start" x="621.5" y="-578.2" font-family="Consolas" font-size="11.00">+</text>
<text text-anchor="start" x="632.5" y="-578.2" font-family="Consolas" font-size="11.00">is_guarded()</text>
<text text-anchor="start" x="621.5" y="-562.2" font-family="Consolas" font-size="11.00">+</text>
<text text-anchor="start" x="632.5" y="-562.2" font-family="Consolas" font-size="11.00">print()</text>
<polygon fill="#666666" stroke="#666666" points="617.5,-813 617.5,-813 718.5,-813 718.5,-813 617.5,-813"/>
<polygon fill="#666666" stroke="#666666" points="617.5,-797 617.5,-797 718.5,-797 718.5,-797 617.5,-797"/>
<polygon fill="none" stroke="#666666" points="617,-555 617,-831 718,-831 718,-555 617,-555"/>
</a>
</g>
</g>
<!-- Node13&#45;&gt;Node6 -->
<g id="edge15_Node000006_Node000013" class="edge">
<title>Node13&#45;&gt;Node6</title>
<g id="a_edge15_Node000006_Node000013"><a xlink:title=" ">
<path fill="none" stroke="#63b8ff" d="M646.39,-544.78C645.1,-535.78 643.82,-526.82 642.56,-518.06"/>
<polygon fill="none" stroke="#63b8ff" points="642.97,-545.55 647.85,-554.95 649.9,-544.56 642.97,-545.55"/>
</a>
</g>
</g>
</g>
</svg>

<g id="navigator" transform="translate(0 0)" fill="#404254">
  <rect fill="#f2f5e9" fill-opacity="0.5" stroke="#606060" stroke-width=".5" x="0" y="0" width="60" height="60"/>
  <use id="zoomplus" xlink:href="#zoomPlus" x="17" y="9" onmousedown="handleZoom(evt,'in')"/>
  <use id="zoomminus" xlink:href="#zoomMin" x="42" y="9" onmousedown="handleZoom(evt,'out')"/>
  <use id="reset" xlink:href="#resetDef" x="30" y="36" onmousedown="handleReset()"/>
   <use id="arrowup" xlink:href="#arrowUp" x="0" y="0" onmousedown="handlePan(0,-1)"/>
  <use id="arrowright" xlink:href="#arrowRight" x="0" y="0" onmousedown="handlePan(1,0)"/>
  <use id="arrowdown" xlink:href="#arrowDown" x="0" y="0" onmousedown="handlePan(0,1)"/>
  <use id="arrowleft" xlink:href="#arrowLeft" x="0" y="0" onmousedown="handlePan(-1,0)"/>
</g>
<svg viewBox="0 0 15 15" width="100%" height="30px" preserveAspectRatio="xMaxYMin meet">
 <g id="arrow_out" transform="scale(0.3 0.3)">
  <a xlink:href="class_subloading_metal__coll__graph_org.svg" target="_base">
   <rect id="button" ry="5" rx="5" y="6" x="6" height="38" width="38"
        fill="#f2f5e9" fill-opacity="0.5" stroke="#606060" stroke-width="1.0"/>
   <path id="arrow"
     d="M 11.500037,31.436501 C 11.940474,20.09759 22.043105,11.32322 32.158766,21.979434 L 37.068811,17.246167 C 37.068811,17.246167 37.088388,32 37.088388,32 L 22.160133,31.978069 C 22.160133,31.978069 26.997745,27.140456 26.997745,27.140456 C 18.528582,18.264221 13.291696,25.230495 11.500037,31.436501 z"
     style="fill:#404040;"/>
  </a>
 </g>
</svg>

<style type='text/css'>
<![CDATA[
[data-mouse-over-selected='false'] { opacity: 0.7; }
[data-mouse-over-selected='true']  { opacity: 1.0; }
]]>
</style>
<script type="application/ecmascript"><![CDATA[
document.addEventListener('DOMContentLoaded', (event) => {
  highlightEdges();
  highlightAdjacentNodes();
});
]]></script>
</svg>
