<?xml version="1.0" encoding="UTF-8" standalone="no"?>
<!DOCTYPE svg PUBLIC "-//W3C//DTD SVG 1.1//EN"
 "http://www.w3.org/Graphics/SVG/1.1/DTD/svg11.dtd">
<!-- Generated by graphviz version 2.43.0 (0)
 -->
<!-- Title: SubloadingMetal::update_trial_status Pages: 1 -->
<svg width="856pt" height="248pt"
 viewBox="0.00 0.00 856.00 248.00" xmlns="http://www.w3.org/2000/svg" xmlns:xlink="http://www.w3.org/1999/xlink">
<g id="graph0" class="graph" transform="scale(1 1) rotate(0) translate(4 244)">
<title>SubloadingMetal::update_trial_status</title>
<!-- Node1 -->
<g id="Node000001" class="node">
<title>Node1</title>
<g id="a_Node000001"><a xlink:title=" ">
<polygon fill="#999999" stroke="#666666" points="172,-139 0,-139 0,-107 172,-107 172,-139"/>
<text text-anchor="start" x="8" y="-126.2" font-family="Consolas" font-size="11.00">SubloadingMetal::update</text>
<text text-anchor="middle" x="86" y="-114.2" font-family="Consolas" font-size="11.00">_trial_status</text>
</a>
</g>
</g>
<!-- Node2 -->
<g id="Node000002" class="node">
<title>Node2</title>
<g id="a_Node000002"><a xlink:href="../../dd/d8c/namespacetensor.html#a82bcab854febeba7c0d66c204ff09052" target="_top" xlink:title=" ">
<polygon fill="white" stroke="#666666" points="336,-240 245,-240 245,-220 336,-220 336,-240"/>
<text text-anchor="middle" x="290.5" y="-227.2" font-family="Consolas" font-size="11.00">tensor::dev</text>
</a>
</g>
</g>
<!-- Node1&#45;&gt;Node2 -->
<g id="edge1_Node000001_Node000002" class="edge">
<title>Node1&#45;&gt;Node2</title>
<g id="a_edge1_Node000001_Node000002"><a xlink:title=" ">
<path fill="none" stroke="#63b8ff" d="M104.41,-139.2C126.72,-159.08 167.37,-192.42 208,-211 216.44,-214.86 225.75,-217.98 234.96,-220.48"/>
<polygon fill="#63b8ff" stroke="#63b8ff" points="234.32,-223.93 244.87,-222.96 236.02,-217.14 234.32,-223.93"/>
</a>
</g>
</g>
<!-- Node6 -->
<g id="Node000006" class="node">
<title>Node6</title>
<g id="a_Node000006"><a xlink:href="../../d7/dfe/namespacetensor_1_1stress.html#af1b7616c9f3199750cd0c3c2a2b04912" target="_top" xlink:title=" ">
<polygon fill="white" stroke="#666666" points="373,-202 208,-202 208,-170 373,-170 373,-202"/>
<text text-anchor="start" x="216" y="-189.2" font-family="Consolas" font-size="11.00">tensor::stress::double</text>
<text text-anchor="middle" x="290.5" y="-177.2" font-family="Consolas" font-size="11.00">_contraction</text>
</a>
</g>
</g>
<!-- Node1&#45;&gt;Node6 -->
<g id="edge5_Node000001_Node000006" class="edge">
<title>Node1&#45;&gt;Node6</title>
<g id="a_edge5_Node000001_Node000006"><a xlink:title=" ">
<path fill="none" stroke="#63b8ff" d="M137.9,-139.07C159.51,-145.87 184.97,-153.85 208,-161 214.12,-162.9 220.51,-164.87 226.89,-166.84"/>
<polygon fill="#63b8ff" stroke="#63b8ff" points="226.29,-170.32 236.87,-169.91 228.35,-163.63 226.29,-170.32"/>
</a>
</g>
</g>
<!-- Node7 -->
<g id="Node000007" class="node">
<title>Node7</title>
<g id="a_Node000007"><a xlink:href="../../d8/d8f/suan_pan_8h.html#ab2f3bbc668dc6fbf9332feb42dba79a3" target="_top" xlink:title=" ">
<polygon fill="white" stroke="#666666" points="326,-152 255,-152 255,-132 326,-132 326,-152"/>
<text text-anchor="middle" x="290.5" y="-139.2" font-family="Consolas" font-size="11.00">inf_norm</text>
</a>
</g>
</g>
<!-- Node1&#45;&gt;Node7 -->
<g id="edge6_Node000001_Node000007" class="edge">
<title>Node1&#45;&gt;Node7</title>
<g id="a_edge6_Node000001_Node000007"><a xlink:title=" ">
<path fill="none" stroke="#63b8ff" d="M172.29,-131C197.19,-133.34 223.4,-135.8 244.71,-137.8"/>
<polygon fill="#63b8ff" stroke="#63b8ff" points="244.47,-141.29 254.75,-138.74 245.12,-134.32 244.47,-141.29"/>
</a>
</g>
</g>
<!-- Node8 -->
<g id="Node000008" class="node">
<title>Node8</title>
<g id="a_Node000008"><a xlink:href="../../d7/dfe/namespacetensor_1_1stress.html#abbd4c67ff74e768ef7c8bdaf1ca28011" target="_top" xlink:title=" ">
<polygon fill="white" stroke="#666666" points="366.5,-114 214.5,-114 214.5,-94 366.5,-94 366.5,-114"/>
<text text-anchor="middle" x="290.5" y="-101.2" font-family="Consolas" font-size="11.00">tensor::stress::norm</text>
</a>
</g>
</g>
<!-- Node1&#45;&gt;Node8 -->
<g id="edge7_Node000001_Node000008" class="edge">
<title>Node1&#45;&gt;Node8</title>
<g id="a_edge7_Node000001_Node000008"><a xlink:title=" ">
<path fill="none" stroke="#63b8ff" d="M172.29,-115C182.86,-114.01 193.66,-112.99 204.23,-112"/>
<polygon fill="#63b8ff" stroke="#63b8ff" points="204.64,-115.48 214.27,-111.06 203.99,-108.51 204.64,-115.48"/>
</a>
</g>
</g>
<!-- Node9 -->
<g id="Node000009" class="node">
<title>Node9</title>
<g id="a_Node000009"><a xlink:href="../../d9/d81/class_data_subloading_metal_1_1_saturation.html#acc82a5e27b3581bf9434a30d563a3d58" target="_top" xlink:title=" ">
<polygon fill="white" stroke="#666666" points="554,-82 409,-82 409,-50 554,-50 554,-82"/>
<text text-anchor="start" x="417" y="-69.2" font-family="Consolas" font-size="11.00">DataSubloadingMetal</text>
<text text-anchor="middle" x="481.5" y="-57.2" font-family="Consolas" font-size="11.00">::Saturation::r</text>
</a>
</g>
</g>
<!-- Node1&#45;&gt;Node9 -->
<g id="edge8_Node000001_Node000009" class="edge">
<title>Node1&#45;&gt;Node9</title>
<g id="a_edge8_Node000001_Node000009"><a xlink:title=" ">
<path fill="none" stroke="#63b8ff" d="M129.5,-106.96C152.42,-99 181.39,-90.03 208,-85 271.26,-73.03 344.05,-68.42 398.48,-66.72"/>
<polygon fill="#63b8ff" stroke="#63b8ff" points="398.87,-70.21 408.77,-66.42 398.67,-63.21 398.87,-70.21"/>
</a>
</g>
</g>
<!-- Node10 -->
<g id="Node000010" class="node">
<title>Node10</title>
<g id="a_Node000010"><a xlink:href="../../d9/d81/class_data_subloading_metal_1_1_saturation.html#aeb0d0b87236632581bba4f80c5776c49" target="_top" xlink:title=" ">
<polygon fill="white" stroke="#666666" points="363,-38 218,-38 218,-6 363,-6 363,-38"/>
<text text-anchor="start" x="226" y="-25.2" font-family="Consolas" font-size="11.00">DataSubloadingMetal</text>
<text text-anchor="middle" x="290.5" y="-13.2" font-family="Consolas" font-size="11.00">::Saturation::rb</text>
</a>
</g>
</g>
<!-- Node1&#45;&gt;Node10 -->
<g id="edge9_Node000001_Node000010" class="edge">
<title>Node1&#45;&gt;Node10</title>
<g id="a_edge9_Node000001_Node000010"><a xlink:title=" ">
<path fill="none" stroke="#63b8ff" d="M111.32,-106.98C135.27,-91.64 173.21,-68.45 208,-52 215.64,-48.39 223.84,-44.92 232,-41.7"/>
<polygon fill="#63b8ff" stroke="#63b8ff" points="233.43,-44.9 241.51,-38.05 230.92,-38.37 233.43,-44.9"/>
</a>
</g>
</g>
<!-- Node3 -->
<g id="Node000003" class="node">
<title>Node3</title>
<g id="a_Node000003"><a xlink:href="../../dd/d8c/namespacetensor.html#a735fc96d0b8bcb54fd29f2660d97a2ca" target="_top" xlink:title=" ">
<polygon fill="white" stroke="#666666" points="533.5,-240 429.5,-240 429.5,-220 533.5,-220 533.5,-240"/>
<text text-anchor="middle" x="481.5" y="-227.2" font-family="Consolas" font-size="11.00">tensor::mean3</text>
</a>
</g>
</g>
<!-- Node2&#45;&gt;Node3 -->
<g id="edge2_Node000002_Node000003" class="edge">
<title>Node2&#45;&gt;Node3</title>
<g id="a_edge2_Node000002_Node000003"><a xlink:title=" ">
<path fill="none" stroke="#63b8ff" d="M336.29,-230C361.07,-230 392.22,-230 419.23,-230"/>
<polygon fill="#63b8ff" stroke="#63b8ff" points="419.35,-233.5 429.35,-230 419.35,-226.5 419.35,-233.5"/>
</a>
</g>
</g>
<!-- Node4 -->
<g id="Node000004" class="node">
<title>Node4</title>
<g id="a_Node000004"><a xlink:href="../../dd/d8c/namespacetensor.html#a36216f68489b10fcf90423c293da6e1f" target="_top" xlink:title="Only accepts 3D tensor!">
<polygon fill="white" stroke="#666666" points="701,-240 590,-240 590,-220 701,-220 701,-240"/>
<text text-anchor="middle" x="645.5" y="-227.2" font-family="Consolas" font-size="11.00">tensor::trace3</text>
</a>
</g>
</g>
<!-- Node3&#45;&gt;Node4 -->
<g id="edge3_Node000003_Node000004" class="edge">
<title>Node3&#45;&gt;Node4</title>
<g id="a_edge3_Node000003_Node000004"><a xlink:title=" ">
<path fill="none" stroke="#63b8ff" d="M533.76,-230C548.29,-230 564.31,-230 579.55,-230"/>
<polygon fill="#63b8ff" stroke="#63b8ff" points="579.94,-233.5 589.94,-230 579.94,-226.5 579.94,-233.5"/>
</a>
</g>
</g>
<!-- Node5 -->
<g id="Node000005" class="node">
<title>Node5</title>
<g id="a_Node000005"><a xlink:href="../../d8/d8f/suan_pan_8h.html#aa87073491bf65bc79b4d8b6c2a613d06" target="_top" xlink:title=" ">
<polygon fill="white" stroke="#666666" points="848,-240 737,-240 737,-220 848,-220 848,-240"/>
<text text-anchor="middle" x="792.5" y="-227.2" font-family="Consolas" font-size="11.00">suanpan_assert</text>
</a>
</g>
</g>
<!-- Node4&#45;&gt;Node5 -->
<g id="edge4_Node000004_Node000005" class="edge">
<title>Node4&#45;&gt;Node5</title>
<g id="a_edge4_Node000004_Node000005"><a xlink:title=" ">
<path fill="none" stroke="#63b8ff" d="M701.32,-230C709.53,-230 718.06,-230 726.46,-230"/>
<polygon fill="#63b8ff" stroke="#63b8ff" points="726.6,-233.5 736.6,-230 726.6,-226.5 726.6,-233.5"/>
</a>
</g>
</g>
<!-- Node10&#45;&gt;Node9 -->
<g id="edge11_Node000010_Node000009" class="edge">
<title>Node10&#45;&gt;Node9</title>
<g id="a_edge11_Node000010_Node000009"><a xlink:title=" ">
<path fill="none" stroke="#63b8ff" d="M360.27,-38.01C373.69,-41.13 387.86,-44.43 401.57,-47.63"/>
<polygon fill="#63b8ff" stroke="#63b8ff" points="400.93,-51.07 411.47,-49.93 402.52,-44.25 400.93,-51.07"/>
</a>
</g>
</g>
<!-- Node11 -->
<g id="Node000011" class="node">
<title>Node11</title>
<g id="a_Node000011"><a xlink:href="../../d9/d81/class_data_subloading_metal_1_1_saturation.html#a037b9eb35749cf39004f0395b482b976" target="_top" xlink:title=" ">
<polygon fill="white" stroke="#666666" points="554,-32 409,-32 409,0 554,0 554,-32"/>
<text text-anchor="start" x="417" y="-19.2" font-family="Consolas" font-size="11.00">DataSubloadingMetal</text>
<text text-anchor="middle" x="481.5" y="-7.2" font-family="Consolas" font-size="11.00">::Saturation::b</text>
</a>
</g>
</g>
<!-- Node10&#45;&gt;Node11 -->
<g id="edge10_Node000010_Node000011" class="edge">
<title>Node10&#45;&gt;Node11</title>
<g id="a_edge10_Node000010_Node000011"><a xlink:title=" ">
<path fill="none" stroke="#63b8ff" d="M363.22,-19.72C374.77,-19.36 386.8,-18.97 398.57,-18.6"/>
<polygon fill="#63b8ff" stroke="#63b8ff" points="398.94,-22.09 408.83,-18.28 398.72,-15.09 398.94,-22.09"/>
</a>
</g>
</g>
</g>
</svg>
