<?xml version="1.0" encoding="UTF-8" standalone="no"?>
<!DOCTYPE svg PUBLIC "-//W3C//DTD SVG 1.1//EN"
 "http://www.w3.org/Graphics/SVG/1.1/DTD/svg11.dtd">
<!-- Generated by graphviz version 2.43.0 (0)
 -->
<!-- Title: DataSubloadingMetal::Saturation::r Pages: 1 -->
<svg width="542pt" height="62pt"
 viewBox="0.00 0.00 542.00 62.00" xmlns="http://www.w3.org/2000/svg" xmlns:xlink="http://www.w3.org/1999/xlink">
<g id="graph0" class="graph" transform="scale(1 1) rotate(0) translate(4 58)">
<title>DataSubloadingMetal::Saturation::r</title>
<!-- Node1 -->
<g id="Node000001" class="node">
<title>Node1</title>
<g id="a_Node000001"><a xlink:title=" ">
<polygon fill="#999999" stroke="#666666" points="534,-32 389,-32 389,0 534,0 534,-32"/>
<text text-anchor="start" x="397" y="-19.2" font-family="Consolas" font-size="11.00">DataSubloadingMetal</text>
<text text-anchor="middle" x="461.5" y="-7.2" font-family="Consolas" font-size="11.00">::Saturation::r</text>
</a>
</g>
</g>
<!-- Node2 -->
<g id="Node000002" class="node">
<title>Node2</title>
<g id="a_Node000002"><a xlink:href="../../d9/d81/class_data_subloading_metal_1_1_saturation.html#aeb0d0b87236632581bba4f80c5776c49" target="_top" xlink:title=" ">
<polygon fill="white" stroke="#666666" points="353,-54 208,-54 208,-22 353,-22 353,-54"/>
<text text-anchor="start" x="216" y="-41.2" font-family="Consolas" font-size="11.00">DataSubloadingMetal</text>
<text text-anchor="middle" x="280.5" y="-29.2" font-family="Consolas" font-size="11.00">::Saturation::rb</text>
</a>
</g>
</g>
<!-- Node1&#45;&gt;Node2 -->
<g id="edge1_Node000001_Node000002" class="edge">
<title>Node1&#45;&gt;Node2</title>
<g id="a_edge1_Node000001_Node000002"><a xlink:title=" ">
<path fill="none" stroke="#63b8ff" d="M378.96,-26.02C370.36,-27.08 361.67,-28.15 353.2,-29.19"/>
<polygon fill="#63b8ff" stroke="#63b8ff" points="379.48,-29.48 388.98,-24.79 378.63,-22.54 379.48,-29.48"/>
</a>
</g>
</g>
<!-- Node3 -->
<g id="Node000003" class="node">
<title>Node3</title>
<g id="a_Node000003"><a xlink:href="../../d5/da6/class_subloading_metal.html#af5c4ff1913db91f84deff1cd82a9f4eb" target="_top" xlink:title=" ">
<polygon fill="white" stroke="#666666" points="172,-32 0,-32 0,0 172,0 172,-32"/>
<text text-anchor="start" x="8" y="-19.2" font-family="Consolas" font-size="11.00">SubloadingMetal::update</text>
<text text-anchor="middle" x="86" y="-7.2" font-family="Consolas" font-size="11.00">_trial_status</text>
</a>
</g>
</g>
<!-- Node1&#45;&gt;Node3 -->
<g id="edge3_Node000001_Node000003" class="edge">
<title>Node1&#45;&gt;Node3</title>
<g id="a_edge3_Node000001_Node000003"><a xlink:title=" ">
<path fill="none" stroke="#63b8ff" d="M378.66,-13.48C370,-13.28 361.32,-13.12 353,-13 288.56,-12.1 272.44,-12.2 208,-13 196.44,-13.14 184.27,-13.36 172.27,-13.62"/>
<polygon fill="#63b8ff" stroke="#63b8ff" points="378.72,-16.98 388.8,-13.72 378.89,-9.98 378.72,-16.98"/>
</a>
</g>
</g>
<!-- Node2&#45;&gt;Node3 -->
<g id="edge2_Node000002_Node000003" class="edge">
<title>Node2&#45;&gt;Node3</title>
<g id="a_edge2_Node000002_Node000003"><a xlink:title=" ">
<path fill="none" stroke="#63b8ff" d="M197.88,-28.67C189.34,-27.7 180.65,-26.7 172.07,-25.72"/>
<polygon fill="#63b8ff" stroke="#63b8ff" points="197.49,-32.15 207.82,-29.81 198.28,-25.2 197.49,-32.15"/>
</a>
</g>
</g>
</g>
</svg>
