<?xml version="1.0" encoding="UTF-8" standalone="no"?>
<!DOCTYPE svg PUBLIC "-//W3C//DTD SVG 1.1//EN"
 "http://www.w3.org/Graphics/SVG/1.1/DTD/svg11.dtd">
<!-- Generated by graphviz version 2.43.0 (0)
 -->
<!-- Title: DataSubloadingMetal Pages: 1 -->
<svg width="228pt" height="340pt"
 viewBox="0.00 0.00 228.00 340.00" xmlns="http://www.w3.org/2000/svg" xmlns:xlink="http://www.w3.org/1999/xlink">

<svg id="main" version="1.1" xmlns="http://www.w3.org/2000/svg" xmlns:xlink="http://www.w3.org/1999/xlink" xml:space="preserve" onload="init(evt)">
<style type="text/css"><![CDATA[
.node, .edge {opacity: 0.7;}
.node.selected, .edge.selected {opacity: 1;}
.edge:hover path { stroke: red; }
.edge:hover polygon { stroke: red; fill: red; }
]]></style>
<script type="application/ecmascript" xlink:href="../../svg.min.js"/>
<svg id="graph" class="graph">
<g id="graph0" class="graph" transform="scale(1 1) rotate(0) translate(4 336)">
<title>DataSubloadingMetal</title>
<!-- Node1 -->
<g id="Node000001" class="node">
<title>Node1</title>
<g id="a_Node000001"><a xlink:title=" ">
<polygon fill="#999999" stroke="transparent" points="157,-52 18,-52 18,0 157,0 157,-52"/>
<text text-anchor="start" x="23.5" y="-39.2" font-family="Consolas" font-size="11.00">DataSubloadingMetal</text>
<text text-anchor="start" x="50.5" y="-23.2" font-family="Consolas" font-size="11.00">+</text>
<text text-anchor="start" x="89.5" y="-23.2" font-family="Consolas" font-size="11.00">u</text>
<text text-anchor="start" x="84.5" y="-7.2" font-family="Consolas" font-size="11.00"> </text>
<polygon fill="#666666" stroke="#666666" points="18.5,-34 18.5,-34 157.5,-34 157.5,-34 18.5,-34"/>
<polygon fill="#666666" stroke="#666666" points="18.5,-18 18.5,-18 87.5,-18 87.5,-18 18.5,-18"/>
<polygon fill="#666666" stroke="#666666" points="87.5,-18 87.5,-18 157.5,-18 157.5,-18 87.5,-18"/>
<polygon fill="none" stroke="#666666" points="18,0 18,-52 157,-52 157,0 18,0"/>
</a>
</g>
</g>
<!-- Node2 -->
<g id="Node000002" class="node">
<title>Node2</title>
<g id="a_Node000002"><a xlink:title=" ">
<polygon fill="white" stroke="transparent" points="51,-302 0,-302 0,-250 51,-250 51,-302"/>
<text text-anchor="start" x="5.5" y="-289.2" font-family="Consolas" font-size="11.00">double</text>
<text text-anchor="start" x="22.5" y="-273.2" font-family="Consolas" font-size="11.00"> </text>
<text text-anchor="start" x="22.5" y="-257.2" font-family="Consolas" font-size="11.00"> </text>
<polygon fill="#666666" stroke="#666666" points="0.5,-284 0.5,-284 51.5,-284 51.5,-284 0.5,-284"/>
<polygon fill="#666666" stroke="#666666" points="0.5,-268 0.5,-268 51.5,-268 51.5,-268 0.5,-268"/>
<polygon fill="none" stroke="#666666" points="0,-250 0,-302 51,-302 51,-250 0,-250"/>
</a>
</g>
</g>
<!-- Node2&#45;&gt;Node1 -->
<g id="edge1_Node000001_Node000002" class="edge">
<title>Node2&#45;&gt;Node1</title>
<g id="a_edge1_Node000001_Node000002"><a xlink:title=" ">
<path fill="none" stroke="#63b8ff" d="M18.66,-249.91C9.09,-209.44 -3.95,-128.38 26.5,-70 28.16,-66.82 30.17,-63.83 32.44,-61.02"/>
<polygon fill="none" stroke="#63b8ff" points="32.66,-60.78 33.96,-53.69 41.01,-52.16 39.71,-59.25 32.66,-60.78"/>
</a>
</g>
<text text-anchor="middle" x="77.5" y="-193.2" font-family="Consolas" font-size="11.00" fill="grey"> +elastic</text>
<text text-anchor="middle" x="77.5" y="-181.2" font-family="Consolas" font-size="11.00" fill="grey">+initial_iso</text>
<text text-anchor="middle" x="77.5" y="-169.2" font-family="Consolas" font-size="11.00" fill="grey">+initial_kin</text>
<text text-anchor="middle" x="77.5" y="-157.2" font-family="Consolas" font-size="11.00" fill="grey">+k_iso</text>
<text text-anchor="middle" x="77.5" y="-145.2" font-family="Consolas" font-size="11.00" fill="grey">+k_kin</text>
<text text-anchor="middle" x="77.5" y="-133.2" font-family="Consolas" font-size="11.00" fill="grey">+m_iso</text>
<text text-anchor="middle" x="77.5" y="-121.2" font-family="Consolas" font-size="11.00" fill="grey">+m_kin</text>
<text text-anchor="middle" x="77.5" y="-109.2" font-family="Consolas" font-size="11.00" fill="grey">+poissons_ratio</text>
<text text-anchor="middle" x="77.5" y="-97.2" font-family="Consolas" font-size="11.00" fill="grey">+saturation_iso</text>
<text text-anchor="middle" x="77.5" y="-85.2" font-family="Consolas" font-size="11.00" fill="grey">+saturation_kin</text>
<text text-anchor="middle" x="77.5" y="-73.2" font-family="Consolas" font-size="11.00" fill="grey">...</text>
</g>
<!-- Node3 -->
<g id="Node000003" class="node">
<title>Node3</title>
<g id="a_Node000003"><a xlink:href="../../d9/d81/class_data_subloading_metal_1_1_saturation.html" target="_top" xlink:title=" ">
<polygon fill="white" stroke="transparent" points="220,-332 81,-332 81,-220 220,-220 220,-332"/>
<text text-anchor="start" x="86.5" y="-319.2" font-family="Consolas" font-size="11.00">DataSubloadingMetal</text>
<text text-anchor="start" x="110" y="-307.2" font-family="Consolas" font-size="11.00">::Saturation</text>
<text text-anchor="start" x="147.5" y="-291.2" font-family="Consolas" font-size="11.00"> </text>
<text text-anchor="start" x="95" y="-275.2" font-family="Consolas" font-size="11.00">+</text>
<text text-anchor="start" x="115.5" y="-275.2" font-family="Consolas" font-size="11.00">Saturation()</text>
<text text-anchor="start" x="95" y="-259.2" font-family="Consolas" font-size="11.00">+</text>
<text text-anchor="start" x="115.5" y="-259.2" font-family="Consolas" font-size="11.00">r()</text>
<text text-anchor="start" x="95" y="-243.2" font-family="Consolas" font-size="11.00">+</text>
<text text-anchor="start" x="115.5" y="-243.2" font-family="Consolas" font-size="11.00">b()</text>
<text text-anchor="start" x="95" y="-227.2" font-family="Consolas" font-size="11.00">+</text>
<text text-anchor="start" x="115.5" y="-227.2" font-family="Consolas" font-size="11.00">rb()</text>
<polygon fill="#666666" stroke="#666666" points="81.5,-302 81.5,-302 220.5,-302 220.5,-302 81.5,-302"/>
<polygon fill="#666666" stroke="#666666" points="81.5,-286 81.5,-286 220.5,-286 220.5,-286 81.5,-286"/>
<polygon fill="none" stroke="#666666" points="81,-220 81,-332 220,-332 220,-220 81,-220"/>
</a>
</g>
</g>
<!-- Node3&#45;&gt;Node1 -->
<g id="edge2_Node000001_Node000003" class="edge">
<title>Node3&#45;&gt;Node1</title>
<g id="a_edge2_Node000001_Node000003"><a xlink:title=" ">
<path fill="none" stroke="#63b8ff" d="M153.99,-219.8C154.52,-177.01 150.41,-117.25 128.5,-70 127.21,-67.22 125.66,-64.5 123.94,-61.87"/>
<polygon fill="none" stroke="#63b8ff" points="123.86,-61.76 117.04,-59.41 116.58,-52.21 123.4,-54.56 123.86,-61.76"/>
</a>
</g>
<text text-anchor="middle" x="164" y="-139.2" font-family="Consolas" font-size="11.00" fill="grey"> +b</text>
<text text-anchor="middle" x="164" y="-127.2" font-family="Consolas" font-size="11.00" fill="grey">+c</text>
</g>
</g>
</svg>
</svg>

<style type='text/css'>
<![CDATA[
[data-mouse-over-selected='false'] { opacity: 0.7; }
[data-mouse-over-selected='true']  { opacity: 1.0; }
]]>
</style>
<script type="application/ecmascript"><![CDATA[
document.addEventListener('DOMContentLoaded', (event) => {
  highlightEdges();
  highlightAdjacentNodes();
});
]]></script>
</svg>
